<svg xmlns="http://www.w3.org/2000/svg" viewBox="0 0 1200 120" width="1200" height="120">
  <defs>
    <linearGradient id="footerGrad" x1="0%" y1="0%" x2="100%" y2="0%">
      <stop offset="0%" style="stop-color:#667eea;stop-opacity:1" />
      <stop offset="50%" style="stop-color:#764ba2;stop-opacity:1" />
      <stop offset="100%" style="stop-color:#f093fb;stop-opacity:1" />
    </linearGradient>
  </defs>
  
  <!-- Wave background -->
  <path d="M 0 40 Q 150 20 300 40 T 600 40 T 900 40 T 1200 40 L 1200 120 L 0 120 Z" fill="url(#footerGrad)" opacity="0.3"/>
  <path d="M 0 60 Q 200 45 400 60 T 800 60 T 1200 60 L 1200 120 L 0 120 Z" fill="url(#footerGrad)" opacity="0.5"/>
  <path d="M 0 80 Q 250 70 500 80 T 1000 80 T 1200 80 L 1200 120 L 0 120 Z" fill="url(#footerGrad)" opacity="0.7"/>
  
  <!-- Decorative elements -->
  <circle cx="100" cy="25" r="3" fill="#ffffff" opacity="0.6"/>
  <circle cx="300" cy="35" r="2.5" fill="#ffffff" opacity="0.5"/>
  <circle cx="500" cy="30" r="3.5" fill="#ffffff" opacity="0.7"/>
  <circle cx="700" cy="40" r="2" fill="#ffffff" opacity="0.4"/>
  <circle cx="900" cy="25" r="3" fill="#ffffff" opacity="0.6"/>
  <circle cx="1100" cy="35" r="2.5" fill="#ffffff" opacity="0.5"/>
  
  <!-- Stars -->
  <text x="200" y="30" font-family="Arial, sans-serif" font-size="20" fill="#fbbf24" opacity="0.8">⭐</text>
  <text x="600" y="25" font-family="Arial, sans-serif" font-size="20" fill="#fbbf24" opacity="0.8">⭐</text>
  <text x="1000" y="35" font-family="Arial, sans-serif" font-size="20" fill="#fbbf24" opacity="0.8">⭐</text>
  
  <!-- Bottom text -->
  <text x="600" y="100" font-family="Arial, sans-serif" font-size="14" fill="#ffffff" text-anchor="middle" opacity="0.9">Made with ❤️ for PSIT Students</text>
</svg>
